<svg xmlns="http://www.w3.org/2000/svg" width="300" height="180" viewBox="0 0 300 180"><path d="M298.032 90.5c.014 48.936-39.646 88.614-88.582 88.627-48.937.012-88.614-39.646-88.627-88.582V90.5c-.013-48.935 39.647-88.615 88.58-88.628 48.938-.013 88.616 39.647 88.63 88.583v.045z" fill="#F90"/><path d="M90 1.895C41.356 2.205 1.968 41.78 1.968 90.5c0 48.91 39.695 88.604 88.605 88.604 22.955 0 43.88-8.748 59.624-23.086l-.007-.004h.018c3.224-2.938 6.23-6.108 8.995-9.488H141.05c-2.424-2.928-4.627-5.98-6.606-9.127h31.308c1.904-3.05 3.628-6.22 5.158-9.49h-41.635c-1.42-3.04-2.65-6.16-3.703-9.31h49.045c2.956-8.83 4.56-18.28 4.56-28.108 0-6.513-.706-12.862-2.042-18.975H122.97c.672-3.146 1.52-6.254 2.53-9.308h49.062c-1.097-3.25-2.37-6.418-3.82-9.488H129.27c1.496-3.196 3.19-6.305 5.084-9.307h31.285c-2.09-3.318-4.39-6.487-6.88-9.49h-17.44c2.69-3.173 5.66-6.162 8.882-8.95C134.46 10.64 113.53 1.89 90.57 1.89H90z" fill="#C00"/><path d="M289.143 136.82c.482 0 .95.125 1.41.37.46.247.813.602 1.07 1.063.255.456.383.937.383 1.435 0 .492-.127.968-.38 1.424-.25.455-.604.81-1.06 1.063-.45.25-.928.375-1.424.375s-.972-.126-1.426-.375c-.455-.254-.807-.607-1.063-1.063-.252-.456-.377-.932-.377-1.424 0-.498.127-.98.384-1.435.258-.46.614-.813 1.07-1.062.463-.24.932-.37 1.413-.37m0 .48c-.4 0-.793.106-1.176.31-.38.21-.677.5-.89.89-.218.38-.326.78-.326 1.195 0 .41.11.81.32 1.188.217.378.51.674.89.886.38.21.777.315 1.19.315.413 0 .81-.104 1.19-.315.376-.21.67-.508.882-.885.21-.38.313-.776.313-1.19 0-.415-.106-.812-.32-1.193-.214-.388-.512-.68-.895-.888-.38-.21-.77-.31-1.17-.31m-1.256 3.972v-3.08h1.06c.36 0 .62.03.786.09.162.056.29.153.388.296.098.14.147.29.147.45 0 .227-.08.423-.242.59-.157.165-.372.26-.64.28.11.045.198.102.266.164.123.12.273.322.453.61l.375.602h-.606l-.273-.485c-.214-.382-.387-.62-.52-.72-.09-.07-.224-.105-.397-.105h-.292v1.31h-.5m.497-1.737H289c.286 0 .48-.042.586-.13.105-.085.16-.2.16-.34 0-.09-.026-.173-.077-.243-.05-.072-.12-.124-.215-.16-.09-.035-.256-.055-.498-.055h-.562v.933" fill="#FCB340"/><path d="M119.975 115.92l1.18-8.02c-.645 0-1.593.28-2.43.28-3.285 0-3.695-1.756-3.437-3.038l3.236-16.13h4.992l1.03-9.103h-4.706l.958-5.52h-9.842c-.208.21-5.568 31.02-5.568 34.772 0 5.554 3.118 8.026 7.516 7.987 3.442-.03 6.125-.98 7.07-1.237zm2.987-15.288c0 13.332 8.8 16.5 16.297 16.5 6.92 0 10.55-1.605 10.55-1.605l1.66-9.1s-5.85 2.378-10.6 2.378c-10.13 0-8.36-7.554-8.36-7.554l19.46.06s1.24-6.11 1.24-8.6c0-6.212-3.387-13.85-13.745-13.85-9.486.008-16.51 10.23-16.51 21.78zm16.546-13.325c5.324 0 4.342 5.984 4.342 6.47h-10.474c0-.62.99-6.47 6.132-6.47zm59.738 28.61l1.69-10.284s-4.633 2.32-7.808 2.32c-6.693 0-9.378-5.11-9.378-10.6 0-11.137 5.758-17.265 12.168-17.265 4.808 0 8.665 2.7 8.665 2.7l1.54-9.994s-4.554-3.29-9.456-3.308c-14.745-.058-23.182 10.208-23.182 27.955 0 11.77 6.248 19.77 17.506 19.77 3.19 0 8.26-1.29 8.26-1.29zm-131.16-36.91c-6.47 0-11.427 2.08-11.427 2.08l-1.37 8.125s4.09-1.663 10.28-1.663c3.51 0 6.08.39 6.08 3.25 0 1.73-.318 2.37-.318 2.37s-2.773-.23-4.057-.23c-9.21 0-16.73 3.48-16.73 13.98 0 8.27 5.624 10.17 9.11 10.17 6.656 0 9.29-4.208 9.443-4.22l-.077 3.49h8.307l3.705-25.98c0-11.026-9.618-11.38-12.958-11.38zm1.438 21.095c.18 1.586-.41 9.086-6.092 9.086-2.93 0-3.69-2.24-3.69-3.562 0-2.584 1.402-5.683 8.314-5.683 1.61 0 1.197.116 1.468.16zM89.87 116.9c2.126 0 14.273.54 14.273-11.994 0-11.72-11.244-9.404-11.244-14.114 0-2.342 1.83-3.08 5.18-3.08 1.33 0 6.443.423 6.443.423l1.19-8.33s-3.314-.74-8.706-.74c-6.98 0-14.063 2.785-14.063 12.317 0 10.802 11.812 9.717 11.812 14.267 0 3.03-3.3 3.28-5.845 3.28-4.4 0-8.363-1.51-8.377-1.44l-1.26 8.246c.23.07 2.675 1.157 10.588 1.157zm187.193-45.45l-1.705 12.708s-3.553-4.905-9.112-4.905c-10.46 0-15.85 10.423-15.85 22.396 0 7.73 3.845 15.3 11.7 15.3 5.65 0 8.784-3.94 8.784-3.94l-.415 3.363h9.178l7.207-44.863-9.787-.07zm-4.052 24.7c0 4.983-2.46 11.64-7.58 11.64-3.39 0-4.98-2.85-4.98-7.324 0-7.315 3.284-12.14 7.43-12.14 3.394 0 5.137 2.33 5.137 7.824zm-256 20.267l5.745-33.87.844 33.87h6.5l12.123-33.87-5.37 33.87h9.658l7.438-44.922-15.34-.117-9.126 27.504-.25-27.387H15.17l-7.55 44.922h9.386z" fill="#006"/><path d="M162.357 116.48c2.746-15.614 3.724-27.946 11.732-25.392 1.15-6.044 3.89-11.3 5.14-13.858 0 0-.4-.59-2.87-.59-4.23 0-9.87 8.575-9.87 8.575l.84-5.3h-8.785l-5.884 36.565h9.69zm56.65-37.474c-6.473 0-11.43 2.08-11.43 2.08l-1.37 8.126s4.095-1.663 10.28-1.663c3.514 0 6.083.39 6.083 3.25 0 1.73-.313 2.37-.313 2.37s-2.77-.23-4.055-.23c-9.21 0-16.73 3.48-16.73 13.98 0 8.27 5.623 10.17 9.108 10.17 6.655 0 9.292-4.208 9.443-4.22l-.078 3.49h8.31l3.704-25.98C231.96 79.355 222.34 79 219 79zm1.435 21.096c.18 1.586-.41 9.086-6.092 9.086-2.932 0-3.692-2.24-3.692-3.562 0-2.584 1.402-5.683 8.315-5.683 1.61 0 1.2.116 1.47.16zm21.08 16.378c1.508-11.487 4.3-27.615 11.73-25.392 1.15-6.044.042-6.028-2.432-6.028-4.228 0-5.164.154-5.164.154l.844-5.3h-8.785l-5.884 36.566h9.7z" fill="#006"/><path d="M122.434 113.06l1.18-8.02c-.644 0-1.593.276-2.43.276-3.284 0-3.646-1.746-3.437-3.037l2.653-16.37h4.99l1.206-8.87h-4.706l.958-5.517h-9.434c-.208.21-5.57 31.023-5.57 34.775 0 5.555 3.12 8.03 7.518 7.99 3.444-.03 6.126-.983 7.072-1.237zm2.99-15.29c0 13.332 8.8 16.5 16.296 16.5 6.92 0 9.965-1.547 9.965-1.547l1.662-9.1s-5.264 2.32-10.018 2.32c-10.13 0-8.36-7.553-8.36-7.553h19.17s1.24-6.113 1.24-8.604c0-6.216-3.097-13.79-13.45-13.79-9.49.002-16.51 10.223-16.51 21.774zm16.543-13.325c5.324 0 4.342 5.983 4.342 6.467h-10.48c0-.618.99-6.467 6.13-6.467zm59.74 28.61l1.688-10.285s-4.63 2.32-7.806 2.32c-6.7 0-9.38-5.11-9.38-10.6 0-11.136 5.76-17.263 12.17-17.263 4.802 0 8.66 2.7 8.66 2.7l1.54-9.994s-5.72-2.315-10.625-2.315c-10.89 0-21.485 9.448-21.485 27.192 0 11.766 5.72 19.537 16.98 19.537 3.183 0 8.253-1.292 8.253-1.292zM70.547 76.143c-6.47 0-11.428 2.08-11.428 2.08l-1.37 8.126s4.09-1.67 10.28-1.67c3.51 0 6.08.394 6.08 3.25 0 1.733-.32 2.373-.32 2.373s-2.77-.233-4.053-.233c-8.16 0-16.73 3.483-16.73 13.98 0 8.273 5.623 10.17 9.11 10.17 6.655 0 9.524-4.32 9.68-4.33l-.31 3.605h8.303L83.5 87.52c0-11.022-9.614-11.377-12.954-11.377zm2.02 21.154c.18 1.587-.994 9.026-6.674 9.026-2.93 0-3.692-2.238-3.692-3.562 0-2.58 1.41-5.68 8.32-5.68 1.61 0 1.78.18 2.05.22zm19.763 16.74c2.126 0 14.274.54 14.274-11.994 0-11.72-11.245-9.404-11.245-14.112 0-2.34 1.83-3.08 5.18-3.08 1.33 0 6.442.43 6.442.43l1.19-8.33s-3.313-.74-8.705-.74c-6.98 0-14.063 2.784-14.063 12.316 0 10.8 11.81 9.717 11.81 14.267 0 3.037-3.3 3.284-5.842 3.284-4.4 0-8.364-1.51-8.378-1.437l-1.258 8.245c.227.07 2.67 1.16 10.585 1.16zm187.522-45.37l-2.035 12.628s-3.55-4.905-9.11-4.905c-8.644 0-15.85 10.422-15.85 22.397 0 7.73 3.844 15.304 11.7 15.304 5.65 0 8.784-3.94 8.784-3.94l-.41 3.37h9.18l7.206-44.86-9.457.015zm-4.38 24.62c0 4.984-2.468 11.64-7.583 11.64-3.4 0-4.99-2.85-4.99-7.323 0-7.314 3.28-12.14 7.43-12.14 3.392 0 5.14 2.332 5.14 7.824zm-256.006 20.27l5.743-33.87.84 33.87h6.5l12.12-33.87-5.37 33.87h9.657L56.4 68.63H41.468l-9.3 27.563-.485-27.563H17.915l-7.545 44.923h9.096zm145.352.06c2.746-15.615 3.255-28.295 9.808-25.974 1.147-6.044 2.254-8.382 3.506-10.94 0 0-.587-.123-1.82-.123-4.224 0-7.354 5.77-7.354 5.77l.84-5.3h-8.783l-5.885 36.566h9.688zm58.657-37.473c-6.47 0-11.428 2.08-11.428 2.08l-1.368 8.126s4.09-1.665 10.28-1.665c3.51 0 6.08.395 6.08 3.25 0 1.734-.32 2.374-.32 2.374s-2.77-.24-4.055-.24c-8.158 0-16.73 3.483-16.73 13.98 0 8.273 5.623 10.17 9.11 10.17 6.654 0 9.523-4.32 9.675-4.33l-.31 3.605h8.31l3.705-25.98c0-11.023-9.617-11.378-12.957-11.378zm2.024 21.154c.18 1.587-1 9.026-6.68 9.026-2.93 0-3.69-2.238-3.69-3.562 0-2.58 1.4-5.68 8.31-5.68 1.61 0 1.78.174 2.052.218zm18.52 16.32c2.75-15.618 3.26-28.298 9.81-25.976 1.15-6.044 2.253-8.382 3.504-10.94 0 0-.587-.123-1.82-.123-4.224 0-7.354 5.77-7.354 5.77l.84-5.3h-8.782l-5.88 36.56h9.685zm45.08-5.642c.48 0 .95.123 1.405.373.46.24.817.592 1.073 1.06.257.45.383.93.383 1.43 0 .492-.125.97-.38 1.423-.25.455-.602.812-1.057 1.063-.456.25-.93.375-1.426.375-.5 0-.975-.125-1.43-.375-.454-.255-.806-.61-1.058-1.065-.257-.454-.38-.93-.38-1.423 0-.497.125-.974.382-1.432.26-.46.617-.818 1.074-1.06.46-.25.932-.375 1.41-.375m0 .473c-.4 0-.792.103-1.175.312-.382.203-.68.5-.894.884-.212.38-.32.78-.32 1.192s.105.81.314 1.187c.213.377.51.673.89.886.38.21.774.314 1.19.314.41 0 .81-.103 1.187-.31.38-.214.677-.51.887-.887.21-.38.314-.774.314-1.188s-.105-.815-.32-1.196c-.21-.387-.51-.68-.893-.886-.38-.21-.77-.314-1.17-.314m-1.256 3.977v-3.083h1.06c.364 0 .63.03.79.087.16.057.29.156.385.3.097.14.146.29.146.45 0 .223-.08.42-.24.59-.16.162-.37.26-.636.28.106.042.194.1.26.16.125.12.277.325.457.61l.376.604h-.61l-.27-.484c-.216-.383-.39-.62-.52-.718-.092-.072-.225-.107-.4-.107h-.29v1.31h-.503m.498-1.735h.606c.29 0 .484-.042.588-.13.106-.082.16-.197.16-.34 0-.09-.024-.173-.074-.242-.05-.074-.123-.127-.214-.164-.09-.034-.254-.052-.498-.052h-.565v.93" fill="#FFF"/></svg>