<svg version="1" xmlns="http://www.w3.org/2000/svg" viewBox="0 0 69.1 54.2"><path d="M2 27.1c0-13.8 14.6-25 32.5-25 18 0 32.5 11.2 32.5 25s-14.6 25-32.5 25S2 40.9 2 27.1" fill="#E31D35"/><path d="M41 32.8c0-3.2 2.4-5.6 5.4-5.6 1.2 0 2.3.2 3.2.9v1.5c-.7-.5-1.7-1-3.2-1-2.3 0-3.8 1.7-3.8 4.1 0 2.4 1.6 4.1 3.8 4.1 1.4 0 2.2-.3 3.2-1v1.5c-.9.7-2 .9-3.2.9-3.2.2-5.4-2.3-5.4-5.4m10.4-5.3v10.7h7v-1.5h-5.5v-3.3h4.8v-1.5h-4.8v-3h5.3v-1.4m-20.5 0h1.5v10.7h-1.5zm-16.3 0v10.7h1.5v-4.6h4.4v-1.5h-4.4v-3.2h5v-1.4M9 32.8c0 3.2 2.3 5.6 5.4 5.6 3.1 0 5.4-2.4 5.4-5.6 0-3.2-2.3-5.6-5.4-5.6-3.1 0-5.4 2.4-5.4 5.6m1.6 0c0-2.4 1.6-4.1 3.8-4.1 2.2 0 3.8 1.7 3.8 4.1 0 2.4-1.6 4.1-3.8 4.1-2.2.1-3.8-1.7-3.8-4.1m18.9-5.3v10.7H31v-4.6h4.5v-1.5H31v-3.2h5v-1.4m2.1-11.3c0 2.4 1.6 2.9 3.1 3.3 1.1.4 2.1.7 2.1 1.7 0 1.1-1.1 1.6-2.1 1.6s-2.1-.5-2.9-1.1v1.6c.8.7 1.8 1 2.9 1 2.1 0 3.7-1.4 3.7-3.3 0-2.1-1.6-2.6-3-3-1.2-.4-2.2-.7-2.2-1.9 0-.6.5-1.5 2-1.5.8 0 1.4.1 2.4.8l.1.1v-1.6c-.6-.5-1.5-.7-2.5-.7-2.6 0-3.6 1.9-3.6 3m7.3-2.7v1.4h3.3v9.3h1.6v-9.3h3.3v-1.4m-27.5 5.3c0 3.2 2.3 5.6 5.4 5.6 3.1 0 5.4-2.4 5.4-5.6 0-3.2-2.3-5.6-5.4-5.6-3 0-5.4 2.4-5.4 5.6m1.7 0c0-2.4 1.6-4.1 3.8-4.1 2.2 0 3.8 1.7 3.8 4.1 0 2.4-1.6 4.1-3.8 4.1-2.2.1-3.8-1.7-3.8-4.1m-9.5-5.3v10.7h1.5v-4.3H22c3.1 0 3.4-2.4 3.4-3.2 0-.7-.2-3.2-3.4-3.2h-3.7zm3.4 1.4c.8 0 2.1.2 2.1 1.8s-1.3 1.8-2.1 1.8h-1.9v-3.6h1.9z" fill="#FFF"/><path d="M34.5 52.1C16.6 52.1 2 40.9 2 27.1s14.6-25 32.5-25c18 0 32.5 11.2 32.5 25s-14.5 25-32.5 25m0-52.1C15.5 0 0 12.2 0 27.1 0 42 15.5 54.2 34.5 54.2S69 42.1 69 27.1C69.1 12.2 53.6 0 34.5 0" fill="#FFF"/><path d="M64.5 4.6c0-.2-.2-.3-.5-.3h-.2V5h.2c.3 0 .5-.1.5-.4m.7 1.7h-.5l-.6-1h-.3v1h-.4V3.9h.6c.6 0 .9.2.9.7 0 .3-.1.5-.4.6l.7 1.1zm.9-1.2c0-.6-.2-1.1-.6-1.5-.3-.4-.8-.6-1.3-.6s-1 .2-1.4.6c-.4.4-.6.9-.6 1.5s.2 1.1.6 1.5c.4.4.9.6 1.4.6.6 0 1-.2 1.4-.6.4-.4.5-.9.5-1.5m.5 0c0 .7-.2 1.3-.7 1.8-.5.5-1 .7-1.7.7s-1.2-.2-1.7-.7c-.5-.5-.7-1.1-.7-1.8s.2-1.3.7-1.8c.5-.5 1-.7 1.7-.7s1.2.2 1.7.7c.4.5.7 1.1.7 1.8" fill="#E31D35"/></svg>