<svg version="1" xmlns="http://www.w3.org/2000/svg" viewBox="0 0 300 300"><g fill="#595959"><path d="M150.1 15.1C75.6 15.1 15.2 75.5 15.2 150s60.4 134.9 134.9 134.9S285 224.5 285 150c.1-74.5-60.3-134.9-134.9-134.9zm81.4 234.8c-22.2 18.1-50.5 29-81.4 29-30.9 0-59.2-10.9-81.4-29-1.3-1-2.5-2.1-3.8-3.2 15-24.2 40.1-41.6 69.4-46.3-29-7.1-50.4-33.2-50.4-64.3 0-36.6 29.7-66.2 66.2-66.2 36.6 0 66.2 29.6 66.2 66.2 0 31.1-21.5 57.2-50.4 64.3 29.3 4.7 54.3 22 69.4 46.2-1.2 1.1-2.5 2.2-3.8 3.3z"/><path d="M178 134h-24v-25h-7v25h-24v8h24v24h7v-24h24"/></g></svg>