<svg version="1" xmlns="http://www.w3.org/2000/svg" viewBox="0 0 66.4 85.8"><g fill-rule="evenodd" clip-rule="evenodd"><path d="M66.4 83c0 1.6-1.3 2.8-2.8 2.8H2.8C1.3 85.8 0 84.5 0 83V2.8C0 1.3 1.3 0 2.8 0h60.8c1.6 0 2.8 1.3 2.8 2.8V83z" fill="#E7327F"/><path d="M6.5 82.7c-.7.1-1.3 0-2 0 .1-.3-.1-.6 0-.9v-1.2c0-.1-.1-.3 0-.4.1-.4-.1-1 0-1.5v-1.3s.1-.2 0-.4c0-.2-.1-.4 0-.6v-.7c.1-.4-.1-.7 0-1v-1.5c0-.6-.1-1.1 0-1.5.1-.3-.1-.5 0-.7 0-.1 0-.1.1-.1h.8c.1 0 .3.1.5 0h.5v.6c-.1.3-.1.4-.1.7h.1c.3-1 1.8-1.7 3-1.4.1 0 .3 0 .5.1.8.3 1.3.9 1.7 1.6.1.3.3 1.3.3 1.7 0 .2.1.3.1.5-.1.2 0 .5-.1.7-.1.3-.1.6-.2 1-.6 2.2-2.6 3-5.1 2.7v.3c.1.2-.1.7 0 1-.1.6-.1 1.5-.1 2.3zM18 77.5c-.2.2-.4.5-.6.6-.1 0-.1.2-.2.2-.3.2-.6.4-1 .5-.6.2-1.8.1-2.3-.2-.2-.1-.4-.4-.6-.6-.2-.3-.4-.8-.3-1.3v-.2c.1-.3.2-.7.3-1l.2-.2c.5-.7 1.1-.9 2-1.2h.3c.4-.1.7-.1 1.2-.2.2-.1.6.1.7-.1.1-.2 0-.8-.1-1-.4-1-2-.9-3-.5-.3.1-.6.2-.8.3h-.1c-.1-.2 0-.3-.1-.5 0-.3-.2-.9-.1-1.1h.1c.2-.1.4-.1.6-.2.4-.1 1.1-.3 1.5-.3.1 0 .4-.1.6-.1.5.1 1.5 0 2.1.3.8.5 1.1 1.1 1.3 2.1 0 .2-.1.6 0 .8v4.1c0 .2.1.7 0 .8-.2-.1-1.2-.1-1.4 0h-.4c0 .1.1-.8.1-1zm23-7c1.4.1 2.5.6 3.1 1.5.6.9.9 2.7.5 4-.4 1.3-1.2 2.3-2.6 2.7-.2.1-.9.3-1.1.2-.4.1-1 .1-1.4-.1-1.4-.4-2.4-1.4-2.6-2.9 0-.1-.1-.9-.1-1 0-.1.1-.7.1-.8 0-.2.2-1 .3-1.2.2-.5.6-.9.9-1.3.3-.4 1.3-.9 1.9-1 .2-.1.5-.1.6-.1.1 0 .3.1.4 0zm12.5 8.3c-.7 0-1.4.1-2 0v-.1c.1-.1-.1-.3 0-.6.1-.5-.1-.9 0-1.6v-1.8c0-.9.2-2.4-.8-2.6-.2 0-.5.1-.7.1-.7.3-.8.5-1.1 1.2l-.3.6v.3c-.1.2 0 .6-.1.9 0 .1.1.2 0 .4 0 .2.1.5 0 .8v2.3c-.1 0 0 0-.1.1-.3-.2-1.6.1-1.9 0-.1-.1 0-.4 0-.5V76.5c-.1-.7-.1-1.5 0-2.2 0-.3-.1-.8 0-1.2v-2.3c.2.1.4 0 .6 0h1.3v.2c.1.1 0 .9-.1 1.2h.1c.7-1.6 3.5-2.2 4.6-.7l.1.1c.2.3.4 1.3.4 1.6 0 .2-.1.5 0 .8v4.8zm5.3-8.3c.3 0 .7.1 1 .1.3 0 .7.2.9.3.1.1.2.1.4.1 0 0 0 .1.1.1.8.6 1.1 1.2 1.2 2.3.1.4.2 1.3 0 1.6-.3.2-.9 0-1.3 0-.2 0-.5-.1-.7 0h-2.9s0 .1-.1.1c.1.3 0 .7.1 1 .3.7 1.2 1.4 2.3 1.2.2 0 .4 0 .7-.1.3-.1.7-.1 1-.3.1 0 .3-.2.4-.1.1.2.1.2.1.4.1.1.2 1.1.1 1.3-.3 0-.7.2-1 .3-.3.1-.8 0-1.1.1-.4.1-1.6.1-2.2-.1-.9-.3-1.6-.8-2.1-1.5-.1-.2-.1-.4-.2-.6-.5-1.2-.3-2.7.1-3.9.1-.2.1-.4.2-.5.5-.7 1.1-1.3 2-1.6.3-.2.9-.1 1-.2zm-32.1.2h2.1v.1c-.1.1-.2.4-.2.5-.3.6-.5 1.4-.8 2.1-.7 1.8-1.5 3.7-2.1 5.6-.5 1.5-1 3-2.4 3.7-.3.1-1.1.4-1.7.3-.2-.1-.5-.1-.8-.1v-.4c.1-.3 0-1.1.1-1.3h.2c.1.1 1.2.2 1.5 0 .6-.3.8-1 1-1.6.1-.2.2-.5.3-.7 0-.2-.2-.4-.3-.6-.1-.2-.1-.4-.2-.7-.1-.3-.3-.7-.4-1-.5-1.2-.8-2.4-1.3-3.6-.1-.2-.2-.5-.3-.8-.1-.2-.1-.4-.1-.5-.1-.3-.3-.7-.3-1h2.2c0 .3.2.5.3.7v.2c0 .1.1.2.1.3v.3c.1.3.3.6.4.9.3.7.4 1.5.7 2.2.1.3.1.5.1.7h.1c.1-.1.1-.3.1-.4.1-.4.2-.9.4-1.3.2-.6.4-1.2.6-1.7v-.2c0-.1.2-.3.2-.4.1-.2 0-.2.1-.4.2-.3.4-.6.4-.9zm6.3 1.8h-3.1v-1.8h.2c.2-.1.7 0 .9 0 .4 0 1.4-.1 1.8 0H35c.2 0 .5-.1.6 0 .1.2 0 .9 0 1.3 0 .3-.4.8-.6 1-.6.9-1.1 1.7-1.7 2.6l-.1.1c0 .1 0 .2-.1.3-.1 0-.1.1-.2.1 0 .1-.1.1-.1.2s-.2.2-.2.2c0 .1-.2.3-.2.3.2.1.8 0 1.1 0 .5.1 1 0 1.5 0h.6v.2c-.1.2 0 .9 0 1.2 0 .1.1.4 0 .4-.1.1-.2 0-.4 0h-5.4v-1.5c.3-.2.6-.9.8-1.2.6-.8 1.1-1.6 1.7-2.4.1-.1.7-.7.7-1zm26.6-.4c.3.1.6.4.7.7.1.1 0 .3.1.4v.4h-3c0-1 1-2 2.2-1.5zm-50.9.2c.5.2.7.8.9 1.4v1.5c-.2.9-.4 1.6-1.2 2-.3.2-1.6.2-1.9 0h-.1c0-1.6-.1-3.3.5-4.2.1-.2.4-.5.6-.6.1 0 .2-.1.3-.1.4-.1.7-.1.9 0zm33.8 1.3c.1.3 0 .5.1.8.1.4 0 1-.1 1.4-.2.7-.7 1.2-1.4 1.4-.3.1-.7 0-.9-.1-.7-.3-.9-.8-1.1-1.5v-.5c-.1-.4 0-.9.1-1.2.2-.6.5-1.1 1-1.4.2-.1.4-.1.6-.2.9-.1 1.4.5 1.7 1.3zm-24.8 1.6s.1 0 0 0c0 1.1-.4 1.7-1.1 2-.4.2-1 .2-1.3 0-.3-.2-.4-.8-.2-1.2.2-.3.6-.5 1-.6.3 0 .6-.1.9-.1.3-.1.5-.1.7-.1zM63 33.7c0 16.5-13.4 29.8-29.8 29.8-16.5 0-29.8-13.4-29.8-29.8 0-16.5 13.4-29.8 29.8-29.8C49.6 3.8 63 17.2 63 33.7zm-29.9-28c-15.4 0-28 12.5-28 28s12.5 28 28 28 28-12.5 28-28-12.5-28-28-28z" fill="#FFF"/><path d="M33.1 5.7c-15.4 0-28 12.5-28 28s12.5 28 28 28 28-12.5 28-28-12.5-28-28-28z" fill="#2D5A91"/><path d="M57 33.3c0 2.6-2.1 4.6-4.6 4.6s-4.6-2.1-4.6-4.6c0-2.6 2.1-4.6 4.6-4.6s4.6 2 4.6 4.6zm-14.2-4.7c.9 0 1.6-.7 1.6-1.6v-6.4c0-.9-.7-1.6-1.6-1.6-3.6 0-6.9 1.4-9.5 3.6-2.5-2.2-5.8-3.6-9.5-3.6C16 19 9.6 25.3 9.6 33.2c0 7.8 6.3 14.2 14.2 14.2 3.6 0 6.9-1.4 9.5-3.6 2.5 2.3 5.8 3.6 9.5 3.6.9 0 1.6-.7 1.6-1.6v-6.4c0-.9-.7-1.6-1.6-1.6-2.6 0-4.6-2.1-4.6-4.6 0-2.5 2-4.6 4.6-4.6zm-18.9 9.3c-2.6 0-4.6-2.1-4.6-4.6 0-2.6 2.1-4.6 4.6-4.6 2.6 0 4.6 2.1 4.6 4.6 0 2.5-2 4.6-4.6 4.6z" fill="#FFF"/></g></svg>